<svg width="520" height="334" viewBox="0 0 520 334" fill="none" xmlns="http://www.w3.org/2000/svg">
  <path
    d="M14.83 107.97V60.0801H-10.09V87.6401H-20.54L-34.5 60.0801H-62.2L-48.04 87.6401H-62.5V107.97H14.83Z"
    stroke="#343635ff" stroke-miterlimit="10" />
  <path
    d="M-10.28 6.08008V53.9701H14.64V26.4101H25.09L39.05 53.9701H66.75L52.59 26.4101H67.05V6.08008H-10.28Z"
    stroke="#343635ff" stroke-miterlimit="10" />
  <path
    d="M119.05 107.75V59.8599H94.13V87.4199H83.68L69.72 59.8599H42.02L56.18 87.4199H41.72V107.75H119.05Z"
    stroke="#343635ff" stroke-miterlimit="10" />
  <path
    d="M14.83 220.05V172.16H-10.09V199.72H-20.54L-34.5 172.16H-62.2L-48.04 199.72H-62.5V220.05H14.83Z"
    stroke="#343635ff" stroke-miterlimit="10" />
  <path
    d="M-10.28 118.16V166.05H14.64V138.49H25.09L39.05 166.05H66.75L52.59 138.49H67.05V118.16H-10.28Z"
    stroke="#343635ff" stroke-miterlimit="10" />
  <path
    d="M119.05 219.83V171.94H94.13V199.5H83.68L69.72 171.94H42.02L56.18 199.5H41.72V219.83H119.05Z"
    stroke="#343635ff" stroke-miterlimit="10" />
  <path
    d="M93.9399 5.2998V53.1898H118.86V25.6298H129.31L143.27 53.1898H170.97L156.81 25.6298H171.27V5.2998H93.9399Z"
    stroke="#343635ff" stroke-miterlimit="10" />
  <path
    d="M223.27 106.97V59.0801H198.35V86.6401H187.9L173.94 59.0801H146.24L160.4 86.6401H145.94V106.97H223.27Z"
    stroke="#343635ff" stroke-miterlimit="10" />
  <path
    d="M198.17 5.08008V52.9701H223.09V25.4101H233.54L247.5 52.9701H275.2L261.04 25.4101H275.5V5.08008H198.17Z"
    stroke="#343635ff" stroke-miterlimit="10" />
  <path
    d="M327.5 106.75V58.8599H302.58V86.4199H292.13L278.17 58.8599H250.47L264.63 86.4199H250.17V106.75H327.5Z"
    stroke="#343635ff" stroke-miterlimit="10" />
  <path
    d="M93.9399 117.38V165.27H118.86V137.71H129.31L143.27 165.27H170.97L156.81 137.71H171.27V117.38H93.9399Z"
    stroke="#343635ff" stroke-miterlimit="10" />
  <path
    d="M223.27 219.05V171.16H198.35V198.72H187.9L173.94 171.16H146.24L160.4 198.72H145.94V219.05H223.27Z"
    stroke="#343635ff" stroke-miterlimit="10" />
  <path
    d="M198.17 117.16V165.05H223.09V137.49H233.54L247.5 165.05H275.2L261.04 137.49H275.5V117.16H198.17Z"
    stroke="#343635ff" stroke-miterlimit="10" />
  <path
    d="M327.5 218.83V170.94H302.58V198.5H292.13L278.17 170.94H250.47L264.63 198.5H250.17V218.83H327.5Z"
    stroke="#343635ff" stroke-miterlimit="10" />
  <path
    d="M302.39 6.52002V54.41H327.31V26.85H337.76L351.72 54.41H379.42L365.26 26.85H379.72V6.52002H302.39Z"
    stroke="#343635ff" stroke-miterlimit="10" />
  <path
    d="M431.72 108.19V60.2998H406.8V87.8598H396.35L382.39 60.2998H354.69L368.85 87.8598H354.39V108.19H431.72Z"
    stroke="#343635ff" stroke-miterlimit="10" />
  <path
    d="M406.61 6.2998V54.1898H431.53V26.6298H441.98L455.94 54.1898H483.64L469.48 26.6298H483.94V6.2998H406.61Z"
    stroke="#343635ff" stroke-miterlimit="10" />
  <path
    d="M535.94 107.97V60.0801H511.02V87.6401H500.57L486.61 60.0801H458.91L473.07 87.6401H458.61V107.97H535.94Z"
    stroke="#343635ff" stroke-miterlimit="10" />
  <path
    d="M302.39 118.6V166.49H327.31V138.93H337.76L351.72 166.49H379.42L365.26 138.93H379.72V118.6H302.39Z"
    stroke="#343635ff" stroke-miterlimit="10" />
  <path
    d="M431.72 220.27V172.38H406.8V199.94H396.35L382.39 172.38H354.69L368.85 199.94H354.39V220.27H431.72Z"
    stroke="#343635ff" stroke-miterlimit="10" />
  <path
    d="M406.61 118.38V166.27H431.53V138.71H441.98L455.94 166.27H483.64L469.48 138.71H483.94V118.38H406.61Z"
    stroke="#343635ff" stroke-miterlimit="10" />
  <path
    d="M535.94 220.05V172.16H511.02V199.72H500.57L486.61 172.16H458.91L473.07 199.72H458.61V220.05H535.94Z"
    stroke="#343635ff" stroke-miterlimit="10" />
  <path
    d="M510.83 5.52002V53.41H535.75V25.85H546.2L560.16 53.41H587.86L573.7 25.85H588.16V5.52002H510.83Z"
    stroke="#343635ff" stroke-miterlimit="10" />
  <path
    d="M510.83 117.6V165.49H535.75V137.93H546.2L560.16 165.49H587.86L573.7 137.93H588.16V117.6H510.83Z"
    stroke="#343635ff" stroke-miterlimit="10" />
  <path
    d="M14.83 328.72V280.83H-10.09V308.39H-20.54L-34.5 280.83H-62.2L-48.04 308.39H-62.5V328.72H14.83Z"
    stroke="#343635ff" stroke-miterlimit="10" />
  <path
    d="M-10.28 226.84V274.73H14.64V247.17H25.09L39.05 274.73H66.75L52.59 247.17H67.05V226.84H-10.28Z"
    stroke="#343635ff" stroke-miterlimit="10" />
  <path
    d="M119.05 328.5V280.61H94.13V308.17H83.68L69.72 280.61H42.02L56.18 308.17H41.72V328.5H119.05Z"
    stroke="#343635ff" stroke-miterlimit="10" />
  <path
    d="M93.9399 226.05V273.94H118.86V246.38H129.31L143.27 273.94H170.97L156.81 246.38H171.27V226.05H93.9399Z"
    stroke="#343635ff" stroke-miterlimit="10" />
  <path
    d="M223.27 327.72V279.83H198.35V307.39H187.9L173.94 279.83H146.24L160.4 307.39H145.94V327.72H223.27Z"
    stroke="#343635ff" stroke-miterlimit="10" />
  <path
    d="M198.17 225.84V273.73H223.09V246.17H233.54L247.5 273.73H275.2L261.04 246.17H275.5V225.84H198.17Z"
    stroke="#343635ff" stroke-miterlimit="10" />
  <path
    d="M327.5 327.5V279.61H302.58V307.17H292.13L278.17 279.61H250.47L264.63 307.17H250.17V327.5H327.5Z"
    stroke="#343635ff" stroke-miterlimit="10" />
  <path
    d="M302.39 227.27V275.16H327.31V247.6H337.76L351.72 275.16H379.42L365.26 247.6H379.72V227.27H302.39Z"
    stroke="#343635ff" stroke-miterlimit="10" />
  <path
    d="M431.72 328.94V281.05H406.8V308.61H396.35L382.39 281.05H354.69L368.85 308.61H354.39V328.94H431.72Z"
    stroke="#343635ff" stroke-miterlimit="10" />
  <path
    d="M406.61 227.05V274.94H431.53V247.38H441.98L455.94 274.94H483.64L469.48 247.38H483.94V227.05H406.61Z"
    stroke="#343635ff" stroke-miterlimit="10" />
  <path
    d="M535.94 328.72V280.83H511.02V308.39H500.57L486.61 280.83H458.91L473.07 308.39H458.61V328.72H535.94Z"
    stroke="#343635ff" stroke-miterlimit="10" />
  <path
    d="M510.83 226.27V274.16H535.75V246.6H546.2L560.16 274.16H587.86L573.7 246.6H588.16V226.27H510.83Z"
    stroke="#343635ff" stroke-miterlimit="10" />
</svg>