<svg viewBox="0 0 48 48" fill="none" xmlns="http://www.w3.org/2000/svg">
  <mask id="mask0_100_1451" style="mask-type:alpha" maskUnits="userSpaceOnUse" x="0" y="0"
    width="48" height="48">
    <rect width="48" height="48" fill="currentColor" />
  </mask>
  <g mask="url(#mask0_100_1451)">
    <path
      d="M12.6653 38.9999C9.97557 38.9999 7.69225 38.0583 5.81535 36.1749C3.93845 34.2916 3 32.0051 3 29.3153C3 26.8692 3.8205 24.7173 5.4615 22.8596C7.10253 21.0019 9.14868 19.9564 11.6 19.7231C12.1128 16.618 13.5416 14.0597 15.8865 12.0481C18.2313 10.0366 20.9627 9.03082 24.0806 9.03082C27.5704 9.03082 30.5216 10.293 32.9344 12.8173C35.3473 15.3417 36.5537 18.3757 36.5537 21.9192V23.8116H37.1691C39.3511 23.7321 41.2018 24.4205 42.721 25.8769C44.2402 27.3333 44.9999 29.1731 44.9999 31.3961C44.9999 33.4782 44.253 35.266 42.7594 36.7595C41.2659 38.2531 39.4781 38.9999 37.396 38.9999H25.1345V23.2538L28.7538 26.873C28.9768 27.1089 29.2454 27.2185 29.5595 27.2019C29.8736 27.1852 30.1422 27.0653 30.3652 26.8423C30.6012 26.6192 30.7159 26.3474 30.7095 26.0269C30.7031 25.7064 30.5883 25.4346 30.3652 25.2115L25.0114 19.9077C24.7242 19.6205 24.3871 19.4769 23.9999 19.4769C23.6127 19.4769 23.2756 19.6205 22.9884 19.9077L17.6345 25.2615C17.4115 25.4846 17.3051 25.7513 17.3153 26.0615C17.3256 26.3718 17.4422 26.632 17.6653 26.8423C17.8884 27.0781 18.1634 27.1897 18.4903 27.1769C18.8172 27.164 19.0922 27.0461 19.3153 26.823L22.8653 23.2538V38.9999H12.6653Z"
      fill="currentColor" />
  </g>
</svg>