<svg viewBox="0 0 24 24" fill="none" xmlns="http://www.w3.org/2000/svg">
<mask id="mask0_602_10153" style="mask-type:alpha" maskUnits="userSpaceOnUse" x="0" y="0" width="24" height="24">
<rect width="24" height="24" fill="currentColor"/>
</mask>
<g mask="url(#mask0_602_10153)">
<path d="M5.40399 20.4999C5.14631 20.4999 4.93125 20.4137 4.75882 20.2413C4.58637 20.0688 4.50014 19.8538 4.50014 19.5961V11.2403L3.23089 12.2269C3.05526 12.3551 2.86937 12.4057 2.67322 12.3788C2.47707 12.3519 2.3149 12.2506 2.18672 12.075C2.0585 11.8993 2.00625 11.7134 2.02997 11.5173C2.05368 11.3211 2.14823 11.159 2.31362 11.0307L4.50014 9.35V7.23075C4.50014 7.01795 4.57194 6.83975 4.71554 6.69615C4.85913 6.55256 5.03733 6.48077 5.25014 6.48077C5.46296 6.48077 5.64116 6.55256 5.78474 6.69615C5.92833 6.83975 6.00012 7.01795 6.00012 7.23075V8.20002L11.4578 4.05195C11.5347 3.99168 11.6184 3.94392 11.7088 3.90867C11.7992 3.87342 11.8963 3.8558 12.0001 3.8558C12.104 3.8558 12.2011 3.87342 12.2915 3.90867C12.3819 3.94392 12.4655 3.99168 12.5424 4.05195L21.6866 11.0307C21.852 11.159 21.9466 11.3211 21.9703 11.5173C21.994 11.7134 21.9417 11.8993 21.8135 12.075C21.6853 12.2403 21.5232 12.3365 21.327 12.3634C21.1309 12.3903 20.9501 12.3397 20.7847 12.2115L19.5001 11.2403V19.5961C19.5001 19.8538 19.4139 20.0688 19.2414 20.2413C19.069 20.4137 18.8539 20.4999 18.5962 20.4999H5.40399ZM6.00012 19H10.8078V15.8076C10.8078 15.473 10.9229 15.1907 11.153 14.9605C11.3831 14.7304 11.6655 14.6153 12.0001 14.6153C12.3347 14.6153 12.6171 14.7304 12.8472 14.9605C13.0774 15.1907 13.1924 15.473 13.1924 15.8076V19H18.0001V10.1L12.0001 5.52497L6.00012 10.1V19ZM5.42512 5.38462C5.16743 5.38462 4.95654 5.27693 4.79244 5.06155C4.62836 4.84616 4.61105 4.61476 4.74052 4.36735C4.93027 3.90068 5.22706 3.52087 5.63089 3.22792C6.03474 2.93497 6.52962 2.7885 7.11552 2.7885C7.38218 2.7885 7.60526 2.7292 7.78474 2.6106C7.96424 2.49201 8.08924 2.32182 8.15974 2.10002C8.21744 1.97566 8.3027 1.87661 8.41552 1.8029C8.52833 1.72918 8.65718 1.69232 8.80204 1.69232C9.08281 1.69232 9.29755 1.80418 9.44627 2.0279C9.59498 2.25161 9.60973 2.48527 9.49049 2.72885C9.29434 3.1891 8.99274 3.5641 8.58569 3.85385C8.17864 4.14358 7.68858 4.28845 7.11552 4.28845C6.85525 4.28845 6.63377 4.34711 6.45107 4.46442C6.26838 4.58172 6.14178 4.74294 6.07127 4.94807C6.00717 5.09551 5.91614 5.20512 5.79819 5.27692C5.68024 5.34872 5.55588 5.38462 5.42512 5.38462Z" fill="currentColor"/>
</g>
</svg>
