<svg viewBox="0 0 720 740" fill="none" xmlns="http://www.w3.org/2000/svg">
  <mask id="path-1-inside-1_54_791" fill="currentColor">
    <path fill-rule="evenodd" clip-rule="evenodd"
      d="M359.997 0C434.429 0 503.888 23.2961 561.338 63.1704H561.3C618.749 103.006 664.342 159.419 691.689 225.811C709.934 270.085 719.994 318.799 719.994 369.751C719.994 446.2 697.312 517.542 658.49 576.509C619.705 635.515 564.78 682.343 500.14 710.432C457.034 729.171 409.605 739.503 359.997 739.503C285.565 739.503 216.105 716.207 158.694 676.332C101.244 636.497 55.6519 580.084 28.304 513.692C10.0594 469.418 0 420.704 0 369.751C0 293.303 22.6815 221.961 61.5039 162.994C100.288 103.988 155.213 57.1598 219.854 29.071C262.96 10.332 310.388 0 359.997 0ZM520.947 614.969C566.922 583.069 603.45 537.852 625.29 484.857C639.824 449.5 647.895 410.726 647.895 369.791C647.856 308.427 629.803 251.739 598.745 204.518C567.687 157.298 523.663 119.78 472.065 97.3485C437.642 82.4201 399.89 74.131 360.035 74.131C300.291 74.1703 245.098 92.7128 199.123 124.612C153.148 156.512 116.62 201.729 94.7803 254.725C80.2458 290.081 72.1753 328.856 72.1753 369.791C72.2135 431.154 90.2669 487.842 121.325 535.063C152.383 582.284 196.407 619.801 248.005 642.233C282.428 657.161 320.18 665.45 360.035 665.45C419.779 665.411 474.972 646.868 520.947 614.969ZM507.866 214.063H212.128V294.794H507.866V214.063ZM212.128 337.344V525.48H307.443V417.21H347.413L400.808 525.48H506.757L452.597 417.21H507.905V337.344H212.128Z" />
  </mask>
  <path
    d="M561.338 63.1704V64.1704H564.532L561.908 62.3489L561.338 63.1704ZM561.3 63.1704V62.1704H558.103L560.73 63.9922L561.3 63.1704ZM691.689 225.811L690.765 226.192L690.765 226.192L691.689 225.811ZM658.49 576.509L657.654 575.959L657.654 575.96L658.49 576.509ZM500.14 710.432L499.741 709.515L499.741 709.515L500.14 710.432ZM158.694 676.332L159.264 675.511L159.264 675.51L158.694 676.332ZM28.304 513.692L29.2287 513.311L29.2286 513.311L28.304 513.692ZM61.5039 162.994L62.3391 163.544L62.3396 163.543L61.5039 162.994ZM219.854 29.071L220.252 29.9881L220.252 29.9881L219.854 29.071ZM625.29 484.857L626.214 485.238L626.215 485.237L625.29 484.857ZM520.947 614.969L521.517 615.791L520.947 614.969ZM647.895 369.791H648.895V369.79L647.895 369.791ZM598.745 204.518L599.581 203.969L598.745 204.518ZM472.065 97.3485L472.464 96.4314L472.463 96.431L472.065 97.3485ZM360.035 74.131V73.131H360.034L360.035 74.131ZM199.123 124.612L198.553 123.791L199.123 124.612ZM94.7803 254.725L93.8557 254.344L93.8554 254.344L94.7803 254.725ZM72.1753 369.791H71.1753V369.791L72.1753 369.791ZM121.325 535.063L120.489 535.613L121.325 535.063ZM248.005 642.233L247.606 643.15L247.607 643.15L248.005 642.233ZM360.035 665.45V666.45H360.036L360.035 665.45ZM212.128 214.063V213.063H211.128V214.063H212.128ZM507.866 214.063H508.866V213.063H507.866V214.063ZM212.128 294.794H211.128V295.794H212.128V294.794ZM507.866 294.794V295.794H508.866V294.794H507.866ZM212.128 525.48H211.128V526.48H212.128V525.48ZM212.128 337.344V336.344H211.128V337.344H212.128ZM307.443 525.48V526.48H308.443V525.48H307.443ZM307.443 417.21V416.21H306.443V417.21H307.443ZM347.413 417.21L348.31 416.768L348.035 416.21H347.413V417.21ZM400.808 525.48L399.911 525.922L400.187 526.48H400.808V525.48ZM506.757 525.48V526.48H508.376L507.652 525.033L506.757 525.48ZM452.597 417.21V416.21H450.979L451.703 417.658L452.597 417.21ZM507.905 417.21V418.21H508.905V417.21H507.905ZM507.905 337.344H508.905V336.344H507.905V337.344ZM561.908 62.3489C504.298 22.3629 434.64 -1 359.997 -1V1C434.217 1 503.479 24.2292 560.768 63.992L561.908 62.3489ZM561.3 64.1704H561.338V62.1704H561.3V64.1704ZM692.614 225.43C665.193 158.861 619.478 102.294 561.87 62.3487L560.73 63.9922C618.02 103.717 663.49 159.977 690.765 226.192L692.614 225.43ZM720.994 369.751C720.994 318.666 710.908 269.823 692.614 225.43L690.765 226.192C708.96 270.347 718.994 318.931 718.994 369.751H720.994ZM659.325 577.059C698.253 517.932 720.994 446.4 720.994 369.751H718.994C718.994 446.001 696.371 517.152 657.654 575.959L659.325 577.059ZM500.538 711.349C565.362 683.181 620.437 636.223 659.325 577.058L657.654 575.96C618.974 634.807 564.199 681.505 499.741 709.515L500.538 711.349ZM359.997 740.503C409.745 740.503 457.309 730.141 500.539 711.349L499.741 709.515C456.758 728.2 409.465 738.503 359.997 738.503V740.503ZM158.123 677.154C215.696 717.14 285.353 740.503 359.997 740.503V738.503C285.776 738.503 216.515 715.273 159.264 675.511L158.123 677.154ZM27.3794 514.073C54.8001 580.642 100.515 637.209 158.124 677.154L159.264 675.51C101.973 635.786 56.5036 579.526 29.2287 513.311L27.3794 514.073ZM-1 369.751C-1 420.836 9.08562 469.679 27.3795 514.073L29.2286 513.311C11.0332 469.156 1 420.572 1 369.751H-1ZM60.6687 162.444C21.7409 221.571 -1 293.103 -1 369.751H1C1 293.502 23.622 222.351 62.3391 163.544L60.6687 162.444ZM219.455 28.1538C154.632 56.3221 99.5566 103.28 60.6683 162.445L62.3396 163.543C101.02 104.695 155.794 57.9976 220.252 29.9881L219.455 28.1538ZM359.997 -1C310.248 -1 262.684 9.36131 219.455 28.1539L220.252 29.9881C263.235 11.3027 310.528 1 359.997 1V-1ZM624.365 484.476C602.598 537.294 566.193 582.358 520.377 614.147L521.517 615.791C567.651 583.781 604.301 538.41 626.214 485.238L624.365 484.476ZM646.895 369.791C646.895 410.593 638.851 449.238 624.365 484.476L626.215 485.237C640.798 449.762 648.895 410.859 648.895 369.791H646.895ZM597.91 205.068C628.862 252.129 646.857 308.627 646.895 369.791L648.895 369.79C648.856 308.228 630.744 251.349 599.581 203.969L597.91 205.068ZM471.667 98.2656C523.081 120.618 566.956 158.005 597.91 205.068L599.581 203.969C568.419 156.59 524.244 118.943 472.464 96.4314L471.667 98.2656ZM360.035 75.131C399.75 75.131 437.366 83.3906 471.668 98.2659L472.463 96.431C437.917 81.4497 400.031 73.131 360.035 73.131V75.131ZM199.693 125.434C245.507 93.646 300.502 75.1701 360.036 75.131L360.034 73.131C300.079 73.1704 244.688 91.7796 198.553 123.791L199.693 125.434ZM95.7048 255.106C117.472 202.287 153.877 157.223 199.693 125.434L198.553 123.791C152.419 155.8 115.769 201.171 93.8557 254.344L95.7048 255.106ZM73.1753 369.791C73.1753 328.988 81.2193 290.343 95.7052 255.105L93.8554 254.344C79.2722 289.819 71.1753 328.723 71.1753 369.791H73.1753ZM122.16 534.514C91.2075 487.453 73.2134 430.954 73.1753 369.79L71.1753 369.791C71.2137 431.354 89.3264 488.232 120.489 535.613L122.16 534.514ZM248.403 641.316C196.988 618.963 153.114 581.576 122.16 534.514L120.489 535.613C151.651 582.992 195.826 620.639 247.606 643.15L248.403 641.316ZM360.035 664.45C320.32 664.45 282.704 656.191 248.402 641.315L247.607 643.15C282.153 658.132 320.039 666.45 360.035 666.45V664.45ZM520.377 614.147C474.563 645.935 419.568 664.411 360.034 664.45L360.036 666.45C419.991 666.411 475.382 647.802 521.517 615.791L520.377 614.147ZM212.128 215.063H507.866V213.063H212.128V215.063ZM213.128 294.794V214.063H211.128V294.794H213.128ZM507.866 293.794H212.128V295.794H507.866V293.794ZM506.866 214.063V294.794H508.866V214.063H506.866ZM213.128 525.48V337.344H211.128V525.48H213.128ZM307.443 524.48H212.128V526.48H307.443V524.48ZM306.443 417.21V525.48H308.443V417.21H306.443ZM347.413 416.21H307.443V418.21H347.413V416.21ZM401.705 525.038L348.31 416.768L346.516 417.653L399.911 525.922L401.705 525.038ZM506.757 524.48H400.808V526.48H506.757V524.48ZM451.703 417.658L505.863 525.927L507.652 525.033L453.491 416.763L451.703 417.658ZM507.905 416.21H452.597V418.21H507.905V416.21ZM506.905 337.344V417.21H508.905V337.344H506.905ZM212.128 338.344H507.905V336.344H212.128V338.344Z"
    fill="currentColor" mask="url(#path-1-inside-1_54_791)" />
</svg>