<svg viewBox="0 0 24 24" fill="none" xmlns="http://www.w3.org/2000/svg">
<mask id="mask0_602_10281" style="mask-type:alpha" maskUnits="userSpaceOnUse" x="0" y="0" width="24" height="24">
<rect width="24" height="24" fill="currentColor"/>
</mask>
<g mask="url(#mask0_602_10281)">
<path d="M3.5 16.4952V7.37016C3.5 6.8683 3.67701 6.44075 4.03102 6.08754C4.38503 5.73434 4.81058 5.55774 5.3077 5.55774H18.6923C19.1894 5.55774 19.6149 5.73434 19.9689 6.08754C20.3229 6.44075 20.5 6.8683 20.5 7.37016V16.4952C20.5 16.9971 20.3229 17.4246 19.9689 17.7779C19.6149 18.1311 19.1894 18.3077 18.6923 18.3077H5.3077C4.81058 18.3077 4.38503 18.1311 4.03102 17.7779C3.67701 17.4246 3.5 16.9971 3.5 16.4952ZM4.99997 9.30774H7.25V7.05771H5.3077C5.21795 7.05771 5.14423 7.08656 5.08653 7.14426C5.02883 7.20195 4.99997 7.27566 4.99997 7.36541V9.30774ZM8.74995 9.30774H19V7.36541C19 7.27566 18.9711 7.20195 18.9134 7.14426C18.8557 7.08656 18.782 7.05771 18.6923 7.05771H8.74995V9.30774ZM8.74995 13.0577H19V10.8077H8.74995V13.0577ZM8.74995 16.8077H18.6923C18.782 16.8077 18.8557 16.7788 18.9134 16.7211C18.9711 16.6635 19 16.5897 19 16.5V14.5577H8.74995V16.8077ZM5.3077 16.8077H7.25V14.5577H4.99997V16.5C4.99997 16.5897 5.02883 16.6635 5.08653 16.7211C5.14423 16.7788 5.21795 16.8077 5.3077 16.8077ZM4.99997 13.0577H7.25V10.8077H4.99997V13.0577Z" fill="currentColor"/>
</g>
</svg>
