<svg viewBox="0 0 120 120" fill="none" xmlns="http://www.w3.org/2000/svg">
<path fill-rule="evenodd" clip-rule="evenodd" d="M59.9968 0C72.4016 0 83.9777 3.78008 93.5522 10.2502H93.5458C103.12 16.7139 110.719 25.8677 115.276 36.6406C118.317 43.8247 119.994 51.7291 119.994 59.9968C119.994 72.4016 116.214 83.9777 109.743 93.5458C103.28 103.12 94.1259 110.719 83.353 115.276C76.1689 118.317 68.2645 119.994 59.9968 119.994C47.592 119.994 36.0159 116.214 26.4478 109.743C16.8733 103.28 9.2749 94.1259 4.71713 83.353C1.67649 76.1689 0 68.2645 0 59.9968C0 47.592 3.78008 36.0159 10.2502 26.4478C16.7139 16.8733 25.8677 9.2749 36.6406 4.71713C43.8247 1.67649 51.7291 0 59.9968 0ZM86.8207 99.7865C94.4829 94.6104 100.571 87.2733 104.21 78.6741C106.633 72.937 107.978 66.6454 107.978 60.0032C107.971 50.0462 104.963 40.8478 99.7865 33.1857C94.6104 25.5235 87.2733 19.4359 78.6741 15.796C72.937 13.3737 66.6454 12.0287 60.0032 12.0287C50.0462 12.0351 40.8478 15.0438 33.1857 20.2199C25.5235 25.396 19.4359 32.7331 15.796 41.3323C13.3737 47.0693 12.0287 53.361 12.0287 60.0032C12.0351 69.9602 15.0438 79.1586 20.2199 86.8207C25.396 94.4829 32.7331 100.571 41.3323 104.21C47.0693 106.633 53.361 107.978 60.0032 107.978C69.9602 107.971 79.1586 104.963 86.8207 99.7865ZM84.6407 34.7346H35.353V47.8342H84.6407V34.7346ZM35.353 54.738V85.2655H51.2383V67.6974H57.8996L66.7984 85.2655H84.4558L75.4295 67.6974H84.647V54.738H35.353Z" fill="currentColor"/>
</svg>
