<svg viewBox="0 0 632 120" fill="none" xmlns="http://www.w3.org/2000/svg">
  <g clip-path="url(#clip0_9_7)">
    <path fill-rule="evenodd" clip-rule="evenodd"
      d="M59.9968 0C72.4016 0 83.9777 3.78008 93.5522 10.2502H93.5458C103.12 16.7139 110.719 25.8677 115.276 36.6406C118.317 43.8247 119.994 51.7291 119.994 59.9968C119.994 72.4016 116.214 83.9777 109.743 93.5458C103.28 103.12 94.1259 110.719 83.353 115.276C76.1689 118.317 68.2645 119.994 59.9968 119.994C47.592 119.994 36.0159 116.214 26.4478 109.743C16.8733 103.28 9.2749 94.1259 4.71713 83.353C1.67649 76.1689 0 68.2645 0 59.9968C0 47.592 3.78008 36.0159 10.2502 26.4478C16.7139 16.8733 25.8677 9.2749 36.6406 4.71713C43.8247 1.67649 51.7291 0 59.9968 0ZM86.8207 99.7865C94.4829 94.6104 100.571 87.2733 104.21 78.6741C106.633 72.937 107.978 66.6454 107.978 60.0032C107.971 50.0462 104.963 40.8478 99.7865 33.1857C94.6104 25.5235 87.2733 19.4359 78.6741 15.796C72.937 13.3737 66.6454 12.0287 60.0032 12.0287C50.0462 12.0351 40.8478 15.0438 33.1857 20.2199C25.5235 25.396 19.4359 32.7331 15.796 41.3323C13.3737 47.0693 12.0287 53.361 12.0287 60.0032C12.0351 69.9602 15.0438 79.1586 20.2199 86.8207C25.396 94.4829 32.7331 100.571 41.3323 104.21C47.0693 106.633 53.361 107.978 60.0032 107.978C69.9602 107.971 79.1586 104.963 86.8207 99.7865ZM84.6407 34.7346H35.353V47.8342H84.6407V34.7346ZM35.353 54.738V85.2655H51.2383V67.6974H57.8996L66.7984 85.2655H84.4558L75.4295 67.6974H84.647V54.738H35.353Z"
      fill="currentColor" />
    <path fill-rule="evenodd" clip-rule="evenodd"
      d="M207.318 22.2725C229.583 22.2725 241.082 27.2949 241.084 44.1209C241.083 53.8404 236.378 60.4306 226.869 63.6685L244.22 98.0653H229.272L213.278 66.078C212.022 66.18 210.665 66.18 209.307 66.18H196.449V98.0653H183.171V22.2725H207.318ZM196.443 55.6239H209.619C221.01 55.6239 227.493 53.3227 227.493 44.2262C227.493 34.2948 219.653 32.937 209.198 32.937H196.443V55.6239ZM249.128 22.2788H261.571V34.8238H249.128V22.2788ZM261.571 41.8296H249.128V98.0718H261.571V41.8296ZM281.613 49.6701C284.851 43.812 290.709 40.5737 298.652 40.5737L298.658 40.5801C312.249 40.5801 317.788 49.3642 317.788 62.7442V98.0781H305.345V65.7721C305.345 58.1355 304.3 50.7156 294.681 50.7156C285.061 50.7156 281.613 58.0335 281.613 68.1753V98.0717H269.17V41.8295H281.613V49.6701ZM347.48 40.5674C355.004 40.5674 360.853 43.8079 364.201 49.3409V41.8168H376.644V92.4176C376.644 101.514 374.343 108.099 369.849 112.281C365.355 116.462 358.668 118.343 349.884 118.343C337.549 118.343 327.828 113.428 325.839 101.093H338.174C339.321 106.422 342.668 108.513 350.196 108.513C355.735 108.513 359.292 106.945 361.383 104.434C363.474 102.03 364.207 98.5817 364.207 94.9228V88.3379C360.861 93.8837 355.009 97.122 347.48 97.122C334.094 97.122 323.015 86.3554 323.015 68.7937C323.015 51.2319 334.1 40.5674 347.48 40.5674ZM350.196 87.2989C341.833 87.2989 335.981 80.4016 335.981 68.7937C335.981 57.1857 341.833 50.4989 350.196 50.4989C358.559 50.4989 364.73 56.2487 364.73 68.7937C364.73 81.3387 358.247 87.2989 350.196 87.2989ZM400.07 41.8294H411.149H411.156V50.8175H400.077V98.0716H387.634V50.8175H379.793V41.8294H387.634V38.3808C387.634 25.3131 392.548 22.2788 406.241 22.2788H411.156V31.7896H407.599C401.428 31.7896 400.07 32.9433 400.07 38.7951V41.8294ZM436.328 40.5738C420.335 40.5738 408.727 52.5961 408.727 69.5331C408.727 86.4702 419.079 99.4295 437.163 99.4295C451.589 99.4295 460.163 90.2311 462.674 81.2367H450.442C448.242 86.5658 443.226 89.0773 436.641 89.0773C429.533 89.0773 422.215 83.9522 421.374 73.4981H463.299C464.446 54.6805 453.578 40.5674 436.328 40.5674V40.5738ZM421.38 64.408C422.528 53.8518 430.477 50.2949 436.328 50.2949C443.646 50.2949 450.34 55.624 450.652 64.408H421.38ZM480.497 49.6701C483.735 43.812 489.594 40.5737 497.536 40.5737L497.543 40.5801C511.133 40.5801 516.673 49.3642 516.673 62.7442V98.0781H504.229V65.7721C504.229 58.1355 503.184 50.7156 493.565 50.7156C483.946 50.7156 480.497 58.0335 480.497 68.1753V98.0717H468.054V41.8295H480.497V49.6701ZM549.195 89.0837C541.877 89.0837 534.77 83.3339 534.77 69.9538C534.77 56.5737 541.667 50.9259 549.508 50.9259C556.303 50.9259 561.428 55.1076 562.575 61.0677H574.7C572.507 48.6247 561.842 40.5801 549.508 40.5801C532.679 40.5801 521.906 53.3355 521.906 70.0622C521.906 86.7888 532.673 99.4359 548.985 99.4359C561.007 99.4359 572.609 92.0159 575.12 78.8398H562.996C561.326 86.3681 555.366 89.0837 549.195 89.0837ZM577.32 69.5331C577.32 52.5961 588.928 40.5738 604.921 40.5738V40.5674C622.171 40.5674 633.039 54.6805 631.892 73.4981H589.967C590.808 83.9522 598.126 89.0773 605.234 89.0773C611.818 89.0773 616.835 86.5658 619.034 81.2367H631.267C628.755 90.2311 620.182 99.4295 605.756 99.4295C587.672 99.4295 577.32 86.4702 577.32 69.5331ZM604.921 50.2949C599.069 50.2949 591.12 53.8518 589.973 64.408H619.245C618.932 55.624 612.239 50.2949 604.921 50.2949Z"
      fill="currentColor" />
  </g>
  <defs>
    <clipPath id="clip0_9_7">
      <rect width="631.981" height="120" fill="currentColor" />
    </clipPath>
  </defs>
</svg>