<svg viewBox="0 0 24 24" fill="none" xmlns="http://www.w3.org/2000/svg">
<mask id="mask0_602_10150" style="mask-type:alpha" maskUnits="userSpaceOnUse" x="0" y="0" width="24" height="24">
<rect width="24" height="24" fill="currentColor"/>
</mask>
<g mask="url(#mask0_602_10150)">
<path d="M12.1866 16.9211L20.4942 8.61346C20.5391 8.56857 20.5616 8.51408 20.5616 8.44998C20.5616 8.38588 20.5391 8.33139 20.4942 8.28651L19.5212 7.31346C19.4763 7.26857 19.4218 7.24613 19.3577 7.24613C19.2936 7.24613 19.2391 7.26857 19.1942 7.31346L10.8866 15.6211L12.1866 16.9211ZM2.94233 15.2846C2.94233 15.8256 3.12823 16.2487 3.50003 16.5538C3.87183 16.859 4.46671 17.0628 5.28466 17.1654C5.48722 17.1923 5.65004 17.2843 5.77311 17.4413C5.89617 17.5984 5.95258 17.7782 5.94233 17.9808C5.93208 18.1936 5.85612 18.3692 5.71446 18.5077C5.57279 18.6461 5.40388 18.7019 5.20773 18.675C3.96032 18.5211 3.0209 18.1609 2.38948 17.5942C1.75808 17.0275 1.44238 16.2577 1.44238 15.2846C1.44238 14.2718 1.86737 13.4503 2.71736 12.8202C3.56736 12.1901 4.74877 11.8083 6.26158 11.675C6.98852 11.6122 7.53372 11.4808 7.89718 11.2808C8.26065 11.0808 8.44238 10.8038 8.44238 10.45C8.44238 10.0128 8.25296 9.6692 7.87411 9.4192C7.49526 9.1692 6.87377 8.97946 6.00966 8.84996C5.80711 8.82304 5.64109 8.7301 5.51161 8.57113C5.38212 8.41215 5.33084 8.23138 5.35776 8.02883C5.38467 7.81601 5.4773 7.64294 5.63563 7.50961C5.79397 7.37627 5.97762 7.32627 6.18658 7.35961C7.46093 7.55321 8.40548 7.90321 9.02023 8.40961C9.63497 8.91602 9.94233 9.59615 9.94233 10.45C9.94233 11.2436 9.63752 11.8727 9.02791 12.3375C8.41831 12.8022 7.53338 13.0814 6.37313 13.175C5.22953 13.2711 4.37183 13.4942 3.80003 13.8442C3.22823 14.1942 2.94233 14.6743 2.94233 15.2846ZM12.4212 18.8096L8.99813 15.3866L18.3366 6.05771C18.6314 5.76284 18.976 5.61701 19.3702 5.62023C19.7644 5.62343 20.109 5.76926 20.4039 6.05771L21.75 7.40383C22.0448 7.6987 22.1923 8.04485 22.1923 8.44228C22.1923 8.83971 22.0448 9.18586 21.75 9.48073L12.4212 18.8096ZM9.08081 19.5C8.85517 19.5538 8.65646 19.4948 8.48466 19.323C8.31287 19.1512 8.25391 18.9525 8.30776 18.7269L8.99813 15.3866L12.4212 18.8096L9.08081 19.5Z" fill="currentColor"/>
</g>
</svg>
