<svg viewBox="0 0 20 20" fill="none" xmlns="http://www.w3.org/2000/svg">
<mask id="mask0_620_6603" style="mask-type:alpha" maskUnits="userSpaceOnUse" x="0" y="0" width="20" height="20">
<rect width="20" height="20" fill="currentColor"/>
</mask>
<g mask="url(#mask0_620_6603)">
<path d="M4.42316 17.0834C4.00222 17.0834 3.64591 16.9375 3.35425 16.6459C3.06258 16.3542 2.91675 15.9979 2.91675 15.577V4.42317C2.91675 4.00222 3.06258 3.64591 3.35425 3.35425C3.64591 3.06258 4.00222 2.91675 4.42316 2.91675H15.577C15.9979 2.91675 16.3542 3.06258 16.6459 3.35425C16.9375 3.64591 17.0834 4.00222 17.0834 4.42317V15.577C17.0834 15.9979 16.9375 16.3542 16.6459 16.6459C16.3542 16.9375 15.9979 17.0834 15.577 17.0834H4.42316ZM4.42316 15.8334H15.577C15.6411 15.8334 15.6998 15.8067 15.7533 15.7533C15.8067 15.6998 15.8334 15.6411 15.8334 15.577V4.42317C15.8334 4.35905 15.8067 4.30028 15.7533 4.24685C15.6998 4.19344 15.6411 4.16673 15.577 4.16673H4.42316C4.35905 4.16673 4.30028 4.19344 4.24685 4.24685C4.19344 4.30028 4.16673 4.35905 4.16673 4.42317V15.577C4.16673 15.6411 4.19344 15.6998 4.24685 15.7533C4.30028 15.8067 4.35905 15.8334 4.42316 15.8334ZM6.37831 13.9584H13.6859C13.8366 13.9584 13.9482 13.89 14.0209 13.7532C14.0935 13.6165 14.0823 13.484 13.9872 13.3558L12 10.694C11.9221 10.5936 11.8216 10.5434 11.6988 10.5434C11.5759 10.5434 11.4755 10.5936 11.3975 10.694L9.35904 13.3494L7.99367 11.5994C7.91568 11.5044 7.81659 11.4568 7.69639 11.4568C7.5762 11.4568 7.47711 11.507 7.39912 11.6075L6.08504 13.3558C5.98461 13.484 5.97072 13.6165 6.04337 13.7532C6.11603 13.89 6.22767 13.9584 6.37831 13.9584ZM7.08339 8.12504C7.37185 8.12504 7.61758 8.02355 7.82056 7.82056C8.02355 7.61757 8.12504 7.37185 8.12504 7.08339C8.12504 6.79494 8.02355 6.54921 7.82056 6.34623C7.61758 6.14324 7.37185 6.04175 7.08339 6.04175C6.79494 6.04175 6.54921 6.14324 6.34623 6.34623C6.14324 6.54921 6.04175 6.79494 6.04175 7.08339C6.04175 7.37185 6.14324 7.61757 6.34623 7.82056C6.54921 8.02355 6.79494 8.12504 7.08339 8.12504Z" fill="currentColor"/>
</g>
</svg>
