<svg viewBox="0 0 21 20" fill="none" xmlns="http://www.w3.org/2000/svg">
<mask id="mask0_100_896" style="mask-type:alpha" maskUnits="userSpaceOnUse" x="0" y="0" width="21" height="20">
<rect x="0.5" width="20" height="20" fill="currentColor"/>
</mask>
<g mask="url(#mask0_100_896)">
<path d="M9.75 10.75H6.25C6.0375 10.75 5.85938 10.6785 5.71563 10.5356C5.57188 10.3927 5.5 10.2156 5.5 10.0044C5.5 9.79313 5.57188 9.61458 5.71563 9.46875C5.85938 9.32292 6.0375 9.25 6.25 9.25H9.75V5.75C9.75 5.5375 9.82145 5.35937 9.96435 5.21562C10.1073 5.07187 10.2844 5 10.4956 5C10.7069 5 10.8854 5.07187 11.0312 5.21562C11.1771 5.35937 11.25 5.5375 11.25 5.75V9.25H14.75C14.9625 9.25 15.1406 9.32145 15.2844 9.46435C15.4281 9.60727 15.5 9.78435 15.5 9.9956C15.5 10.2069 15.4281 10.3854 15.2844 10.5312C15.1406 10.6771 14.9625 10.75 14.75 10.75H11.25V14.25C11.25 14.4625 11.1785 14.6406 11.0356 14.7844C10.8927 14.9281 10.7156 15 10.5044 15C10.2931 15 10.1146 14.9281 9.96875 14.7844C9.82292 14.6406 9.75 14.4625 9.75 14.25V10.75Z" fill="currentColor"/>
</g>
</svg>
