<svg viewBox="0 0 24 24" fill="none" xmlns="http://www.w3.org/2000/svg">
<mask id="mask0_602_10067" style="mask-type:alpha" maskUnits="userSpaceOnUse" x="0" y="0" width="24" height="24">
<rect width="24" height="24" fill="currentColor"/>
</mask>
<g mask="url(#mask0_602_10067)">
<path d="M13.5095 21.5H10.4807C10.2563 21.5 10.0621 21.4246 9.89797 21.274C9.73387 21.1233 9.63516 20.9358 9.60182 20.7115L9.31145 18.4538C9.0435 18.3641 8.76882 18.2384 8.4874 18.0769C8.20598 17.9153 7.95437 17.7422 7.73257 17.5576L5.64412 18.4384C5.43002 18.5217 5.21752 18.5301 5.00662 18.4634C4.79572 18.3967 4.63002 18.2647 4.5095 18.0673L3.0057 15.4481C2.88518 15.2506 2.84832 15.0397 2.89512 14.8154C2.94191 14.591 3.05568 14.4102 3.23645 14.2731L5.04415 12.9058C5.02107 12.757 5.00472 12.6077 4.9951 12.4577C4.98548 12.3077 4.98067 12.1583 4.98067 12.0096C4.98067 11.8673 4.98548 11.7227 4.9951 11.5759C5.00472 11.4291 5.02107 11.2686 5.04415 11.0942L3.23645 9.72688C3.05568 9.58971 2.94191 9.40894 2.89512 9.18458C2.84832 8.96023 2.88518 8.74934 3.0057 8.5519L4.5095 5.95195C4.61977 5.74425 4.78131 5.60963 4.99412 5.5481C5.20694 5.48657 5.4204 5.49747 5.6345 5.5808L7.72295 6.45195C7.96398 6.26092 8.22136 6.08623 8.49507 5.9279C8.76881 5.76955 9.03772 5.6423 9.30182 5.54615L9.60182 3.28848C9.63516 3.06411 9.73387 2.87661 9.89797 2.72598C10.0621 2.57533 10.2563 2.5 10.4807 2.5H13.5095C13.7338 2.5 13.9296 2.57533 14.0969 2.72598C14.2643 2.87661 14.3646 3.06411 14.3979 3.28848L14.6883 5.55578C14.9883 5.66474 15.2598 5.79198 15.5027 5.9375C15.7457 6.08302 15.9909 6.2545 16.2383 6.45195L18.3652 5.5808C18.5793 5.49747 18.7902 5.48753 18.9979 5.55098C19.2056 5.61444 19.3697 5.74489 19.4902 5.94233L20.994 8.5519C21.1146 8.74934 21.1514 8.96023 21.1046 9.18458C21.0578 9.40894 20.9441 9.58971 20.7633 9.72688L18.9171 11.123C18.953 11.2846 18.9726 11.4355 18.9758 11.5759C18.979 11.7163 18.9806 11.8577 18.9806 12C18.9806 12.1359 18.9774 12.274 18.971 12.4144C18.9646 12.5548 18.9415 12.7154 18.9017 12.8962L20.7287 14.2731C20.9159 14.4038 21.0312 14.583 21.0748 14.8106C21.1184 15.0381 21.08 15.2506 20.9594 15.4481L19.4556 18.0519C19.3351 18.2493 19.1668 18.3823 18.9508 18.4509C18.7348 18.5195 18.5197 18.5121 18.3056 18.4288L16.2383 17.548C15.9909 17.7455 15.7383 17.9201 15.4806 18.0721C15.2229 18.224 14.9588 18.348 14.6883 18.4442L14.3979 20.7115C14.3646 20.9358 14.2643 21.1233 14.0969 21.274C13.9296 21.4246 13.7338 21.5 13.5095 21.5ZM12.0114 15C12.8434 15 13.5515 14.708 14.1354 14.124C14.7194 13.54 15.0114 12.832 15.0114 12C15.0114 11.1679 14.7194 10.4599 14.1354 9.87595C13.5515 9.29198 12.8434 9 12.0114 9C11.1691 9 10.4585 9.29198 9.8797 9.87595C9.30087 10.4599 9.01145 11.1679 9.01145 12C9.01145 12.832 9.30087 13.54 9.8797 14.124C10.4585 14.708 11.1691 15 12.0114 15ZM12.0114 13.5C11.5947 13.5 11.2406 13.3541 10.9489 13.0625C10.6572 12.7708 10.5114 12.4166 10.5114 12C10.5114 11.5833 10.6572 11.2291 10.9489 10.9375C11.2406 10.6458 11.5947 10.5 12.0114 10.5C12.4281 10.5 12.7822 10.6458 13.0739 10.9375C13.3656 11.2291 13.5114 11.5833 13.5114 12C13.5114 12.4166 13.3656 12.7708 13.0739 13.0625C12.7822 13.3541 12.4281 13.5 12.0114 13.5ZM10.9999 20H12.9652L13.3249 17.3211C13.8351 17.1878 14.3015 16.9984 14.7239 16.7529C15.1463 16.5074 15.5537 16.1917 15.946 15.8058L18.4306 16.85L19.4152 15.15L17.246 13.5154C17.3294 13.2564 17.3861 13.0025 17.4162 12.7538C17.4463 12.5051 17.4614 12.2538 17.4614 12C17.4614 11.7397 17.4463 11.4884 17.4162 11.2461C17.3861 11.0038 17.3294 10.7564 17.246 10.5038L19.4345 8.84998L18.4499 7.14998L15.9364 8.2096C15.6018 7.8519 15.2008 7.53588 14.7335 7.26153C14.2662 6.98716 13.7934 6.79293 13.3152 6.67883L12.9999 3.99998H11.0152L10.6845 6.6692C10.1742 6.78972 9.70307 6.97433 9.27102 7.22305C8.83897 7.47177 8.4268 7.79228 8.0345 8.1846L5.54987 7.14998L4.56525 8.84998L6.72487 10.4596C6.64154 10.6968 6.58321 10.9436 6.54987 11.2C6.51654 11.4564 6.49987 11.7263 6.49987 12.0096C6.49987 12.2699 6.51654 12.525 6.54987 12.775C6.58321 13.025 6.63833 13.2718 6.71525 13.5154L4.56525 15.15L5.54987 16.85L8.02487 15.8C8.40436 16.1897 8.81012 16.509 9.24217 16.7577C9.67422 17.0064 10.1518 17.1974 10.6749 17.3308L10.9999 20Z" fill="currentColor"/>
</g>
</svg>
