<svg viewBox="0 0 449 97" fill="none" xmlns="http://www.w3.org/2000/svg">
  <path fill-rule="evenodd" clip-rule="evenodd"
    d="M24.318 0.272461C46.5827 0.272461 58.0822 5.2949 58.0837 22.1209C58.0828 31.8404 53.3784 38.4306 43.8686 41.6685L61.22 76.0653H46.2718L30.2781 44.078C29.0224 44.18 27.6646 44.18 26.3068 44.18H13.4495V76.0653H0.171387V0.272461H24.318ZM13.4431 33.6239H26.6192C38.0104 33.6239 44.4933 31.3227 44.4933 22.2262C44.4933 12.2948 36.6527 10.937 26.1985 10.937H13.4431V33.6239ZM66.1284 0.278809H78.5714V12.8238H66.1284V0.278809ZM78.5714 19.8296H66.1284V76.0718H78.5714V19.8296ZM98.6128 27.6701C101.851 21.812 107.709 18.5737 115.652 18.5737L115.658 18.5801C129.249 18.5801 134.788 27.3642 134.788 40.7442V76.0781H122.345V43.7721C122.345 36.1355 121.3 28.7156 111.681 28.7156C102.061 28.7156 98.6128 36.0335 98.6128 46.1753V76.0717H86.1698V19.8295H98.6128V27.6701ZM164.48 18.5674C172.004 18.5674 177.853 21.8079 181.201 27.3409V19.8168H193.644V70.4176C193.644 79.514 191.343 86.0989 186.849 90.2805C182.355 94.4622 175.668 96.3427 166.884 96.3427C154.549 96.3427 144.828 91.4279 142.839 79.0933H155.174C156.321 84.4224 159.668 86.5132 167.196 86.5132C172.735 86.5132 176.292 84.9451 178.383 82.4335C180.474 80.0303 181.207 76.5817 181.207 72.9228V66.3379C177.861 71.8837 172.009 75.122 164.48 75.122C151.094 75.122 140.015 64.3554 140.015 46.7937C140.015 29.2319 151.1 18.5674 164.48 18.5674ZM167.196 65.2989C158.833 65.2989 152.981 58.4016 152.981 46.7937C152.981 35.1857 158.833 28.4989 167.196 28.4989C175.559 28.4989 181.73 34.2487 181.73 46.7937C181.73 59.3387 175.247 65.2989 167.196 65.2989ZM217.07 19.8294H228.149H228.156V28.8175H217.077V76.0716H204.634V28.8175H196.793V19.8294H204.634V16.3808C204.634 3.31307 209.548 0.278809 223.241 0.278809H228.156V9.78956H224.599C218.428 9.78956 217.07 10.9433 217.07 16.7951V19.8294ZM253.328 18.5738C237.335 18.5738 225.727 30.5961 225.727 47.5331C225.727 64.4702 236.079 77.4295 254.163 77.4295C268.589 77.4295 277.163 68.2311 279.674 59.2367H267.442C265.242 64.5658 260.226 67.0773 253.641 67.0773C246.533 67.0773 239.215 61.9522 238.374 51.4981H280.299C281.446 32.6805 270.578 18.5674 253.328 18.5674V18.5738ZM238.38 42.408C239.528 31.8518 247.477 28.2949 253.328 28.2949C260.646 28.2949 267.34 33.624 267.652 42.408H238.38ZM297.497 27.6701C300.735 21.812 306.594 18.5737 314.536 18.5737L314.543 18.5801C328.133 18.5801 333.673 27.3642 333.673 40.7442V76.0781H321.229V43.7721C321.229 36.1355 320.184 28.7156 310.565 28.7156C300.946 28.7156 297.497 36.0335 297.497 46.1753V76.0717H285.054V19.8295H297.497V27.6701ZM366.195 67.0837C358.877 67.0837 351.77 61.3339 351.77 47.9538C351.77 34.5737 358.667 28.9259 366.508 28.9259C373.303 28.9259 378.428 33.1076 379.575 39.0677H391.7C389.507 26.6247 378.842 18.5801 366.508 18.5801C349.679 18.5801 338.906 31.3355 338.906 48.0622C338.906 64.7888 349.673 77.4359 365.985 77.4359C378.007 77.4359 389.609 70.0159 392.12 56.8398H379.996C378.326 64.3681 372.366 67.0837 366.195 67.0837ZM394.32 47.5331C394.32 30.5961 405.928 18.5738 421.921 18.5738V18.5674C439.171 18.5674 450.039 32.6805 448.892 51.4981H406.967C407.808 61.9522 415.126 67.0773 422.234 67.0773C428.818 67.0773 433.835 64.5658 436.034 59.2367H448.267C445.755 68.2311 437.182 77.4295 422.756 77.4295C404.672 77.4295 394.32 64.4702 394.32 47.5331ZM421.921 28.2949C416.069 28.2949 408.12 31.8518 406.973 42.408H436.245C435.932 33.624 429.239 28.2949 421.921 28.2949Z"
    fill="currentColor" />
</svg>