<svg viewBox="0 0 24 24" fill="none" xmlns="http://www.w3.org/2000/svg">
<mask id="mask0_603_731" style="mask-type:alpha" maskUnits="userSpaceOnUse" x="0" y="0" width="24" height="24">
<rect width="24" height="24" fill="currentColor"/>
</mask>
<g mask="url(#mask0_603_731)">
<path d="M7.30773 20.5C6.80901 20.5 6.38306 20.3234 6.02986 19.9702C5.67664 19.617 5.50003 19.191 5.50003 18.6923V6.00005H5.25003C5.03721 6.00005 4.85901 5.92826 4.71543 5.78468C4.57183 5.6411 4.50003 5.46289 4.50003 5.25008C4.50003 5.03726 4.57183 4.85906 4.71543 4.71548C4.85901 4.57188 5.03721 4.50008 5.25003 4.50008H9.00001C9.00001 4.25521 9.08622 4.04656 9.25866 3.87413C9.43109 3.7017 9.63974 3.61548 9.88461 3.61548H14.1154C14.3603 3.61548 14.5689 3.7017 14.7414 3.87413C14.9138 4.04656 15 4.25521 15 4.50008H18.75C18.9628 4.50008 19.141 4.57188 19.2846 4.71548C19.4282 4.85906 19.5 5.03726 19.5 5.25008C19.5 5.46289 19.4282 5.6411 19.2846 5.78468C19.141 5.92826 18.9628 6.00005 18.75 6.00005H18.5V18.6923C18.5 19.191 18.3234 19.617 17.9702 19.9702C17.617 20.3234 17.191 20.5 16.6923 20.5H7.30773ZM17 6.00005H7.00001V18.6923C7.00001 18.7821 7.02886 18.8558 7.08656 18.9135C7.14426 18.9712 7.21798 19.0001 7.30773 19.0001H16.6923C16.782 19.0001 16.8558 18.9712 16.9135 18.9135C16.9712 18.8558 17 18.7821 17 18.6923V6.00005ZM9.40388 17.0001H10.9039V8.00005H9.40388V17.0001ZM13.0962 17.0001H14.5961V8.00005H13.0962V17.0001Z" fill="currentColor"/>
</g>
</svg>
