<svg viewBox="0 0 24 24" fill="none" xmlns="http://www.w3.org/2000/svg">
<mask id="mask0_602_10083" style="mask-type:alpha" maskUnits="userSpaceOnUse" x="0" y="0" width="24" height="24">
<rect width="24" height="24" fill="currentColor"/>
</mask>
<g mask="url(#mask0_602_10083)">
<path d="M16 13.5C16.4333 13.5 16.7916 13.3583 17.075 13.075C17.3583 12.7916 17.5 12.4333 17.5 12C17.5 11.5666 17.3583 11.2083 17.075 10.925C16.7916 10.6416 16.4333 10.5 16 10.5C15.5666 10.5 15.2083 10.6416 14.925 10.925C14.6416 11.2083 14.5 11.5666 14.5 12C14.5 12.4333 14.6416 12.7916 14.925 13.075C15.2083 13.3583 15.5666 13.5 16 13.5ZM5.3077 20.5C4.80257 20.5 4.375 20.325 4.025 19.975C3.675 19.625 3.5 19.1974 3.5 18.6923V5.3077C3.5 4.80257 3.675 4.375 4.025 4.025C4.375 3.675 4.80257 3.5 5.3077 3.5H18.6923C19.1974 3.5 19.625 3.675 19.975 4.025C20.325 4.375 20.5 4.80257 20.5 5.3077V8.02885H19V5.3077C19 5.21795 18.9711 5.14423 18.9134 5.08653C18.8557 5.02883 18.782 4.99998 18.6923 4.99998H5.3077C5.21795 4.99998 5.14423 5.02883 5.08653 5.08653C5.02883 5.14423 4.99997 5.21795 4.99997 5.3077V18.6923C4.99997 18.782 5.02883 18.8557 5.08653 18.9134C5.14423 18.9711 5.21795 19 5.3077 19H18.6923C18.782 19 18.8557 18.9711 18.9134 18.9134C18.9711 18.8557 19 18.782 19 18.6923V15.9711H20.5V18.6923C20.5 19.1974 20.325 19.625 19.975 19.975C19.625 20.325 19.1974 20.5 18.6923 20.5H5.3077ZM13.3077 16.5C12.8026 16.5 12.375 16.325 12.025 15.975C11.675 15.625 11.5 15.1974 11.5 14.6923V9.3077C11.5 8.80257 11.675 8.375 12.025 8.025C12.375 7.675 12.8026 7.5 13.3077 7.5H19.6922C20.1974 7.5 20.625 7.675 20.975 8.025C21.325 8.375 21.5 8.80257 21.5 9.3077V14.6923C21.5 15.1974 21.325 15.625 20.975 15.975C20.625 16.325 20.1974 16.5 19.6922 16.5H13.3077Z" fill="currentColor"/>
</g>
</svg>
